<mxfile host="app.diagrams.net" agent="Mozilla/5.0 (Macintosh; Intel Mac OS X 10_15_7) AppleWebKit/537.36 (KHTML, like Gecko) Chrome/131.0.0.0 Safari/537.36" version="25.0.1">
  <diagram name="第 1 页" id="VrHr1lwdnJbF9gbz6rKx">
    <mxGraphModel dx="1544" dy="398" grid="1" gridSize="10" guides="1" tooltips="1" connect="1" arrows="1" fold="1" page="1" pageScale="1" pageWidth="827" pageHeight="1169" math="0" shadow="0">
      <root>
        <mxCell id="0" />
        <mxCell id="1" parent="0" />
        <mxCell id="qkXnrVR-RueEX92_qbnU-2" value="课件编辑器" style="shape=umlLifeline;perimeter=lifelinePerimeter;whiteSpace=wrap;html=1;container=1;dropTarget=0;collapsible=0;recursiveResize=0;outlineConnect=0;portConstraint=eastwest;newEdgeStyle={&quot;curved&quot;:0,&quot;rounded&quot;:0};" vertex="1" parent="1">
          <mxGeometry x="140" y="180" width="100" height="450" as="geometry" />
        </mxCell>
        <mxCell id="qkXnrVR-RueEX92_qbnU-3" value="课件服务" style="shape=umlLifeline;perimeter=lifelinePerimeter;whiteSpace=wrap;html=1;container=1;dropTarget=0;collapsible=0;recursiveResize=0;outlineConnect=0;portConstraint=eastwest;newEdgeStyle={&quot;curved&quot;:0,&quot;rounded&quot;:0};" vertex="1" parent="1">
          <mxGeometry x="320" y="180" width="100" height="450" as="geometry" />
        </mxCell>
        <mxCell id="qkXnrVR-RueEX92_qbnU-4" value="SAAS平台" style="shape=umlLifeline;perimeter=lifelinePerimeter;whiteSpace=wrap;html=1;container=1;dropTarget=0;collapsible=0;recursiveResize=0;outlineConnect=0;portConstraint=eastwest;newEdgeStyle={&quot;curved&quot;:0,&quot;rounded&quot;:0};" vertex="1" parent="1">
          <mxGeometry x="500" y="180" width="100" height="450" as="geometry" />
        </mxCell>
        <mxCell id="qkXnrVR-RueEX92_qbnU-5" value="RocketMQ" style="shape=umlLifeline;perimeter=lifelinePerimeter;whiteSpace=wrap;html=1;container=1;dropTarget=0;collapsible=0;recursiveResize=0;outlineConnect=0;portConstraint=eastwest;newEdgeStyle={&quot;curved&quot;:0,&quot;rounded&quot;:0};" vertex="1" parent="1">
          <mxGeometry x="680" y="180" width="100" height="650" as="geometry" />
        </mxCell>
        <mxCell id="qkXnrVR-RueEX92_qbnU-6" value="" style="rounded=0;whiteSpace=wrap;html=1;" vertex="1" parent="1">
          <mxGeometry x="185" y="260" width="10" height="280" as="geometry" />
        </mxCell>
        <mxCell id="qkXnrVR-RueEX92_qbnU-7" value="" style="rounded=0;whiteSpace=wrap;html=1;" vertex="1" parent="1">
          <mxGeometry x="365" y="380" width="10" height="200" as="geometry" />
        </mxCell>
        <mxCell id="qkXnrVR-RueEX92_qbnU-10" value="" style="rounded=0;whiteSpace=wrap;html=1;" vertex="1" parent="1">
          <mxGeometry x="545" y="260" width="10" height="120" as="geometry" />
        </mxCell>
        <mxCell id="qkXnrVR-RueEX92_qbnU-11" value="" style="endArrow=classic;html=1;rounded=0;" edge="1" parent="1">
          <mxGeometry width="50" height="50" relative="1" as="geometry">
            <mxPoint x="556" y="300" as="sourcePoint" />
            <mxPoint x="725" y="300" as="targetPoint" />
          </mxGeometry>
        </mxCell>
        <mxCell id="qkXnrVR-RueEX92_qbnU-12" value="获取配齐Token" style="edgeLabel;html=1;align=center;verticalAlign=middle;resizable=0;points=[];" vertex="1" connectable="0" parent="qkXnrVR-RueEX92_qbnU-11">
          <mxGeometry x="0.3396" y="2" relative="1" as="geometry">
            <mxPoint x="-29" y="-8" as="offset" />
          </mxGeometry>
        </mxCell>
        <mxCell id="qkXnrVR-RueEX92_qbnU-13" value="" style="rounded=0;whiteSpace=wrap;html=1;" vertex="1" parent="1">
          <mxGeometry x="725" y="300" width="10" height="40" as="geometry" />
        </mxCell>
        <mxCell id="qkXnrVR-RueEX92_qbnU-14" value="" style="endArrow=classic;html=1;rounded=0;dashed=1;" edge="1" parent="1">
          <mxGeometry width="50" height="50" relative="1" as="geometry">
            <mxPoint x="725" y="340" as="sourcePoint" />
            <mxPoint x="555" y="340" as="targetPoint" />
          </mxGeometry>
        </mxCell>
        <mxCell id="qkXnrVR-RueEX92_qbnU-15" value="返回" style="edgeLabel;html=1;align=center;verticalAlign=middle;resizable=0;points=[];" vertex="1" connectable="0" parent="qkXnrVR-RueEX92_qbnU-14">
          <mxGeometry x="-0.0773" y="-1" relative="1" as="geometry">
            <mxPoint y="-9" as="offset" />
          </mxGeometry>
        </mxCell>
        <mxCell id="qkXnrVR-RueEX92_qbnU-18" value="" style="endArrow=classic;html=1;rounded=0;" edge="1" parent="1">
          <mxGeometry width="50" height="50" relative="1" as="geometry">
            <mxPoint x="196" y="380" as="sourcePoint" />
            <mxPoint x="365" y="380" as="targetPoint" />
          </mxGeometry>
        </mxCell>
        <mxCell id="qkXnrVR-RueEX92_qbnU-19" value="课件发布" style="edgeLabel;html=1;align=center;verticalAlign=middle;resizable=0;points=[];" vertex="1" connectable="0" parent="qkXnrVR-RueEX92_qbnU-18">
          <mxGeometry x="0.3396" y="2" relative="1" as="geometry">
            <mxPoint x="-29" y="-8" as="offset" />
          </mxGeometry>
        </mxCell>
        <mxCell id="qkXnrVR-RueEX92_qbnU-20" value="" style="endArrow=classic;html=1;rounded=0;dashed=1;" edge="1" parent="1">
          <mxGeometry width="50" height="50" relative="1" as="geometry">
            <mxPoint x="365" y="500" as="sourcePoint" />
            <mxPoint x="195" y="500" as="targetPoint" />
          </mxGeometry>
        </mxCell>
        <mxCell id="qkXnrVR-RueEX92_qbnU-21" value="返回" style="edgeLabel;html=1;align=center;verticalAlign=middle;resizable=0;points=[];" vertex="1" connectable="0" parent="qkXnrVR-RueEX92_qbnU-20">
          <mxGeometry x="-0.0773" y="-1" relative="1" as="geometry">
            <mxPoint y="-9" as="offset" />
          </mxGeometry>
        </mxCell>
        <mxCell id="qkXnrVR-RueEX92_qbnU-22" value="" style="endArrow=classic;html=1;rounded=0;" edge="1" parent="1">
          <mxGeometry width="50" height="50" relative="1" as="geometry">
            <mxPoint x="375" y="500" as="sourcePoint" />
            <mxPoint x="725" y="500" as="targetPoint" />
          </mxGeometry>
        </mxCell>
        <mxCell id="qkXnrVR-RueEX92_qbnU-23" value="一般接口请求" style="edgeLabel;html=1;align=center;verticalAlign=middle;resizable=0;points=[];" vertex="1" connectable="0" parent="qkXnrVR-RueEX92_qbnU-22">
          <mxGeometry x="0.3396" y="2" relative="1" as="geometry">
            <mxPoint x="-139" y="-8" as="offset" />
          </mxGeometry>
        </mxCell>
        <mxCell id="qkXnrVR-RueEX92_qbnU-24" value="" style="rounded=0;whiteSpace=wrap;html=1;" vertex="1" parent="1">
          <mxGeometry x="725" y="500" width="10" height="40" as="geometry" />
        </mxCell>
        <mxCell id="qkXnrVR-RueEX92_qbnU-25" value="" style="endArrow=classic;html=1;rounded=0;dashed=1;" edge="1" parent="1">
          <mxGeometry width="50" height="50" relative="1" as="geometry">
            <mxPoint x="725" y="540" as="sourcePoint" />
            <mxPoint x="376" y="540" as="targetPoint" />
          </mxGeometry>
        </mxCell>
        <mxCell id="qkXnrVR-RueEX92_qbnU-26" value="返回" style="edgeLabel;html=1;align=center;verticalAlign=middle;resizable=0;points=[];" vertex="1" connectable="0" parent="qkXnrVR-RueEX92_qbnU-25">
          <mxGeometry x="-0.0773" y="-1" relative="1" as="geometry">
            <mxPoint y="-9" as="offset" />
          </mxGeometry>
        </mxCell>
        <mxCell id="qkXnrVR-RueEX92_qbnU-27" value="" style="endArrow=classic;html=1;rounded=0;" edge="1" parent="1">
          <mxGeometry width="50" height="50" relative="1" as="geometry">
            <mxPoint x="15" y="640" as="sourcePoint" />
            <mxPoint x="725" y="640" as="targetPoint" />
          </mxGeometry>
        </mxCell>
        <mxCell id="qkXnrVR-RueEX92_qbnU-28" value="试题变更写入消息队列" style="edgeLabel;html=1;align=center;verticalAlign=middle;resizable=0;points=[];" vertex="1" connectable="0" parent="qkXnrVR-RueEX92_qbnU-27">
          <mxGeometry x="0.3396" y="2" relative="1" as="geometry">
            <mxPoint x="-139" y="-8" as="offset" />
          </mxGeometry>
        </mxCell>
        <mxCell id="qkXnrVR-RueEX92_qbnU-29" value="" style="endArrow=classic;html=1;rounded=0;dashed=1;" edge="1" parent="1">
          <mxGeometry width="50" height="50" relative="1" as="geometry">
            <mxPoint x="725" y="679.75" as="sourcePoint" />
            <mxPoint x="15" y="680" as="targetPoint" />
          </mxGeometry>
        </mxCell>
        <mxCell id="qkXnrVR-RueEX92_qbnU-30" value="返回" style="edgeLabel;html=1;align=center;verticalAlign=middle;resizable=0;points=[];" vertex="1" connectable="0" parent="qkXnrVR-RueEX92_qbnU-29">
          <mxGeometry x="-0.0773" y="-1" relative="1" as="geometry">
            <mxPoint y="-9" as="offset" />
          </mxGeometry>
        </mxCell>
        <mxCell id="qkXnrVR-RueEX92_qbnU-31" value="" style="rounded=0;whiteSpace=wrap;html=1;" vertex="1" parent="1">
          <mxGeometry x="725" y="640" width="10" height="40" as="geometry" />
        </mxCell>
        <mxCell id="qkXnrVR-RueEX92_qbnU-32" value="题库" style="shape=umlLifeline;perimeter=lifelinePerimeter;whiteSpace=wrap;html=1;container=1;dropTarget=0;collapsible=0;recursiveResize=0;outlineConnect=0;portConstraint=eastwest;newEdgeStyle={&quot;curved&quot;:0,&quot;rounded&quot;:0};" vertex="1" parent="1">
          <mxGeometry x="-40" y="180" width="100" height="1090" as="geometry" />
        </mxCell>
        <mxCell id="qkXnrVR-RueEX92_qbnU-33" value="Actor" style="shape=umlActor;verticalLabelPosition=bottom;verticalAlign=top;html=1;outlineConnect=0;movable=1;resizable=1;rotatable=1;deletable=1;editable=1;locked=0;connectable=1;" vertex="1" parent="1">
          <mxGeometry x="-150" y="170" width="30" height="50" as="geometry" />
        </mxCell>
        <mxCell id="qkXnrVR-RueEX92_qbnU-35" value="" style="endArrow=none;dashed=1;html=1;rounded=0;movable=1;resizable=1;rotatable=1;deletable=1;editable=1;locked=0;connectable=1;" edge="1" parent="1" source="qkXnrVR-RueEX92_qbnU-36">
          <mxGeometry width="50" height="50" relative="1" as="geometry">
            <mxPoint x="-135.5" y="740" as="sourcePoint" />
            <mxPoint x="-135.5" y="240" as="targetPoint" />
          </mxGeometry>
        </mxCell>
        <mxCell id="qkXnrVR-RueEX92_qbnU-37" value="" style="endArrow=none;dashed=1;html=1;rounded=0;movable=1;resizable=1;rotatable=1;deletable=1;editable=1;locked=0;connectable=1;" edge="1" parent="1" target="qkXnrVR-RueEX92_qbnU-36">
          <mxGeometry width="50" height="50" relative="1" as="geometry">
            <mxPoint x="-135" y="1151" as="sourcePoint" />
            <mxPoint x="-135.5" y="240" as="targetPoint" />
          </mxGeometry>
        </mxCell>
        <mxCell id="qkXnrVR-RueEX92_qbnU-36" value="" style="rounded=0;whiteSpace=wrap;html=1;" vertex="1" parent="1">
          <mxGeometry x="-140" y="260" width="10" height="280" as="geometry" />
        </mxCell>
        <mxCell id="qkXnrVR-RueEX92_qbnU-38" value="" style="endArrow=classic;html=1;rounded=0;" edge="1" parent="1">
          <mxGeometry width="50" height="50" relative="1" as="geometry">
            <mxPoint x="-130" y="260" as="sourcePoint" />
            <mxPoint x="185" y="260" as="targetPoint" />
          </mxGeometry>
        </mxCell>
        <mxCell id="qkXnrVR-RueEX92_qbnU-39" value="编辑课件 添加试题" style="edgeLabel;html=1;align=center;verticalAlign=middle;resizable=0;points=[];" vertex="1" connectable="0" parent="qkXnrVR-RueEX92_qbnU-38">
          <mxGeometry x="0.3396" y="2" relative="1" as="geometry">
            <mxPoint x="-131" y="-8" as="offset" />
          </mxGeometry>
        </mxCell>
        <mxCell id="qkXnrVR-RueEX92_qbnU-40" value="" style="endArrow=classic;html=1;rounded=0;dashed=1;" edge="1" parent="1">
          <mxGeometry width="50" height="50" relative="1" as="geometry">
            <mxPoint x="185" y="300" as="sourcePoint" />
            <mxPoint x="-130" y="300" as="targetPoint" />
          </mxGeometry>
        </mxCell>
        <mxCell id="qkXnrVR-RueEX92_qbnU-41" value="返回" style="edgeLabel;html=1;align=center;verticalAlign=middle;resizable=0;points=[];" vertex="1" connectable="0" parent="qkXnrVR-RueEX92_qbnU-40">
          <mxGeometry x="-0.0773" y="-1" relative="1" as="geometry">
            <mxPoint y="-9" as="offset" />
          </mxGeometry>
        </mxCell>
        <mxCell id="qkXnrVR-RueEX92_qbnU-42" value="" style="endArrow=classic;html=1;rounded=0;" edge="1" parent="1">
          <mxGeometry width="50" height="50" relative="1" as="geometry">
            <mxPoint x="-130" y="339.5" as="sourcePoint" />
            <mxPoint x="185" y="339.5" as="targetPoint" />
          </mxGeometry>
        </mxCell>
        <mxCell id="qkXnrVR-RueEX92_qbnU-43" value="课件发布" style="edgeLabel;html=1;align=center;verticalAlign=middle;resizable=0;points=[];" vertex="1" connectable="0" parent="qkXnrVR-RueEX92_qbnU-42">
          <mxGeometry x="0.3396" y="2" relative="1" as="geometry">
            <mxPoint x="-131" y="-8" as="offset" />
          </mxGeometry>
        </mxCell>
        <mxCell id="qkXnrVR-RueEX92_qbnU-44" value="" style="endArrow=classic;html=1;rounded=0;dashed=1;" edge="1" parent="1">
          <mxGeometry width="50" height="50" relative="1" as="geometry">
            <mxPoint x="185" y="539.5" as="sourcePoint" />
            <mxPoint x="-130" y="539.5" as="targetPoint" />
          </mxGeometry>
        </mxCell>
        <mxCell id="qkXnrVR-RueEX92_qbnU-45" value="返回" style="edgeLabel;html=1;align=center;verticalAlign=middle;resizable=0;points=[];" vertex="1" connectable="0" parent="qkXnrVR-RueEX92_qbnU-44">
          <mxGeometry x="-0.0773" y="-1" relative="1" as="geometry">
            <mxPoint y="-9" as="offset" />
          </mxGeometry>
        </mxCell>
        <mxCell id="qkXnrVR-RueEX92_qbnU-47" value="记录试题&lt;div&gt;课件关联&lt;/div&gt;" style="html=1;verticalAlign=bottom;endArrow=block;labelBackgroundColor=none;fontFamily=Verdana;fontSize=12;elbow=vertical;edgeStyle=orthogonalEdgeStyle;curved=1;exitX=1.038;exitY=0.345;exitPerimeter=0;entryX=1.027;entryY=0.831;entryDx=0;entryDy=0;entryPerimeter=0;" edge="1" parent="1">
          <mxGeometry x="0.0275" y="29" relative="1" as="geometry">
            <mxPoint x="375" y="421" as="sourcePoint" />
            <mxPoint x="375" y="460" as="targetPoint" />
            <Array as="points">
              <mxPoint x="410" y="421" />
              <mxPoint x="410" y="460" />
            </Array>
            <mxPoint as="offset" />
          </mxGeometry>
        </mxCell>
        <mxCell id="qkXnrVR-RueEX92_qbnU-49" value="" style="endArrow=none;dashed=1;html=1;rounded=0;movable=1;resizable=1;rotatable=1;deletable=1;editable=1;locked=0;connectable=1;" edge="1" parent="1" target="qkXnrVR-RueEX92_qbnU-48">
          <mxGeometry width="50" height="50" relative="1" as="geometry">
            <mxPoint x="-135.5" y="740" as="sourcePoint" />
            <mxPoint x="-135" y="540" as="targetPoint" />
          </mxGeometry>
        </mxCell>
        <mxCell id="qkXnrVR-RueEX92_qbnU-48" value="" style="rounded=0;whiteSpace=wrap;html=1;" vertex="1" parent="1">
          <mxGeometry x="-140" y="600" width="10" height="120" as="geometry" />
        </mxCell>
        <mxCell id="qkXnrVR-RueEX92_qbnU-50" value="" style="rounded=0;whiteSpace=wrap;html=1;" vertex="1" parent="1">
          <mxGeometry x="5" y="600" width="10" height="120" as="geometry" />
        </mxCell>
        <mxCell id="qkXnrVR-RueEX92_qbnU-51" value="" style="endArrow=classic;html=1;rounded=0;" edge="1" parent="1">
          <mxGeometry width="50" height="50" relative="1" as="geometry">
            <mxPoint x="-130" y="599.5" as="sourcePoint" />
            <mxPoint x="4" y="600" as="targetPoint" />
          </mxGeometry>
        </mxCell>
        <mxCell id="qkXnrVR-RueEX92_qbnU-52" value="编辑试题" style="edgeLabel;html=1;align=center;verticalAlign=middle;resizable=0;points=[];" vertex="1" connectable="0" parent="qkXnrVR-RueEX92_qbnU-51">
          <mxGeometry x="0.3396" y="2" relative="1" as="geometry">
            <mxPoint x="-29" y="-8" as="offset" />
          </mxGeometry>
        </mxCell>
        <mxCell id="qkXnrVR-RueEX92_qbnU-53" value="" style="endArrow=classic;html=1;rounded=0;dashed=1;" edge="1" parent="1">
          <mxGeometry width="50" height="50" relative="1" as="geometry">
            <mxPoint x="5" y="720" as="sourcePoint" />
            <mxPoint x="-130" y="720" as="targetPoint" />
          </mxGeometry>
        </mxCell>
        <mxCell id="qkXnrVR-RueEX92_qbnU-54" value="返回" style="edgeLabel;html=1;align=center;verticalAlign=middle;resizable=0;points=[];" vertex="1" connectable="0" parent="qkXnrVR-RueEX92_qbnU-53">
          <mxGeometry x="-0.0773" y="-1" relative="1" as="geometry">
            <mxPoint y="-9" as="offset" />
          </mxGeometry>
        </mxCell>
      </root>
    </mxGraphModel>
  </diagram>
</mxfile>
